<svg width="266" height="220" viewBox="0 0 266 220" fill="none" xmlns="http://www.w3.org/2000/svg">
<g clip-path="url(#clip0_14_88)">
<path d="M51.5122 48.2932L3.78766 84.6894V150.104C3.78766 150.104 58.33 215.109 62.1177 215.867C65.9053 216.626 156.43 215.867 156.43 215.867L221.199 207.527L256.046 159.757L262.106 100.613L235.593 54.3592L177.641 38.0568L98.7519 36.1611L51.5122 48.2932Z" fill="white" stroke="#030304" stroke-width="10" stroke-miterlimit="10"/>
<path d="M156.052 24.7873L171.096 35.8048L212.488 47.9141L153.779 76.3486L186.353 105.921L128.402 103.236L102.267 133.976L97.7217 96.8215L47.7245 100.651L72.4807 71.0409L27.7181 69.1452L51.8228 47.535L75.7533 30.0951L102.267 30.8534L98.4792 8.10573L121.963 4.31445L126.508 25.5456L156.052 24.7873Z" fill="white" stroke="#030304" stroke-width="10" stroke-miterlimit="10"/>
</g>
<defs>
<clipPath id="clip0_14_88">
<rect width="266" height="220" fill="white"/>
</clipPath>
</defs>
</svg>
