<svg width="150" height="150" viewBox="0 0 150 150" fill="none" xmlns="http://www.w3.org/2000/svg">
<path d="M34.0176 44.0646L10 62.2583V94.9577C10 94.9577 37.4487 127.453 39.3548 127.832C41.261 128.211 86.8182 127.832 86.8182 127.832L119.413 123.662L136.95 99.7829L140 70.2181L126.657 47.0969L97.4927 38.9476L57.7912 38L34.0176 44.0646Z" fill="#EE4848" stroke="#030304" stroke-width="4" stroke-miterlimit="10"/>
<path d="M86.594 32.2632L94.1664 37.7863L115 43.8567L85.4502 58.1111L101.846 72.9357L72.677 71.5901L59.5226 87L57.2348 68.3743L32.0698 70.2939L44.5303 55.4503L22 54.5L34.1326 43.6667L46.1775 34.924L59.5226 35.3041L57.6161 23.9006L69.4361 22L71.7238 32.6433L86.594 32.2632Z" fill="#00AE82" stroke="#030304" stroke-width="4" stroke-miterlimit="10"/>
</svg>
